<svg xmlns="http://www.w3.org/2000/svg" viewBox="0 0 821.02 257.48"><defs><style>.cls-1{fill:#ff6631;}.cls-1,.cls-2{fill-rule:evenodd;}</style></defs><g id="Layer_2" data-name="Layer 2"><g id="Layer_1-2" data-name="Layer 1"><path class="cls-1" d="M128.74,0a128.68,128.68,0,0,1,109.8,61.49c-3.57,9.39-19.26,50.43-33.47,42.1-3.52-2.06-7-7.34-9.06-10.82-4.72-8.1-11-12.79-20.68-7.59-4,2.13-7.57,6.26-11,9.29-10.5,9.23-17.45-.83-26-10.18-16.83-18.41-40.76-12.2-50.57,8.83-14,30-11.7,65.36-40.9,89.4a107.35,107.35,0,0,1-21.18,13.62c-1.81.87-3.56,1.62-5.2,2.29A128.76,128.76,0,0,1,128.74,0ZM245.06,73.5c-4,11.76-11.19,27.67-20.82,37.17-.47.38-1,.82-1.51,1.3-10.34,8.93-24.93,7.18-32.68-5-2.7-4.22-6-12.64-12.24-8.12-2.48,1.79-4.95,5.5-7.57,8.81-5.94,7.5-12.21,16.93-22.49,17.12s-16.26-7.47-22.42-14.44c-18.7-21.21-22.92,13.92-25.67,25.45-6,33.92-18.67,68.68-59,82.93-1,.35-2,.66-3.07.92h0A128.77,128.77,0,0,0,245.06,73.5Z"/><path class="cls-2" d="M441.55,108.37a7.05,7.05,0,0,0-7.13,7.27v51.49a7.1,7.1,0,0,0,7.13,7.13,7,7,0,0,0,7.13-7.13V115.64A7,7,0,0,0,441.55,108.37Z"/><path class="cls-2" d="M501.17,174.26h0a36.4,36.4,0,0,0,21-7,7.31,7.31,0,0,0,1.45-9.78,7.19,7.19,0,0,0-9.9-1.45,21.39,21.39,0,0,1-12.55,4.23c-10.69,0-19.54-8.72-19.54-18.89s8.85-19,19.54-19a21.09,21.09,0,0,1,12.55,4.23,7,7,0,0,0,9.9-1.32,7.28,7.28,0,0,0-1.45-9.78,34.85,34.85,0,0,0-21-7.26c-18.22.13-33.53,14.79-33.53,33.14C467.64,159.47,483,174.26,501.17,174.26Z"/><path class="cls-2" d="M552.83,118.15a33.29,33.29,0,0,0-9,23.23,33.78,33.78,0,0,0,9,23.24,30.68,30.68,0,0,0,22.44,9.64h0a30,30,0,0,0,17.57-5.68,7.18,7.18,0,0,0,6.86,5.68,7,7,0,0,0,7-7V141.18a33.57,33.57,0,0,0-9-23,30.41,30.41,0,0,0-44.89,0ZM587.55,155a17.08,17.08,0,0,1-12.28,5.15A16.68,16.68,0,0,1,563,155a19.87,19.87,0,0,1-5-13.61,19.4,19.4,0,0,1,5-13.6c6.16-7.22,18.42-7.21,24.57,0a21,21,0,0,1,0,27.21Z"/><path class="cls-2" d="M703,108.37a7.05,7.05,0,0,0-7.13,7.27v51.49a7.1,7.1,0,0,0,7.13,7.13,7,7,0,0,0,7.13-7.13V115.64A7,7,0,0,0,703,108.37Z"/><path class="cls-2" d="M750.94,108.85a27.65,27.65,0,0,0-21.85,26.86v31.56a7,7,0,0,0,7,7c3.7,0,7.26-3.3,7.26-7h0V135.71a13.26,13.26,0,0,1,8.22-12.38,14.13,14.13,0,0,1,5-1,13.56,13.56,0,0,1,13.67,13.34v31.56a7.13,7.13,0,0,0,7,7,6.93,6.93,0,0,0,6.86-7V135.71A27.65,27.65,0,0,0,763.05,109,27.06,27.06,0,0,0,750.94,108.85Z"/><path class="cls-2" d="M441.55,83.22A9.48,9.48,0,1,0,451,92.69,9.47,9.47,0,0,0,441.55,83.22Z"/><path class="cls-2" d="M703,83.22a9.48,9.48,0,1,1-9.48,9.47A9.48,9.48,0,0,1,703,83.22Z"/><path class="cls-2" d="M674.79,110.52a7.05,7.05,0,0,0-10.18,0l-24.7,24.52V90.48a7,7,0,0,0-7.13-7.26,7.05,7.05,0,0,0-7.13,7.26v76.65a7.1,7.1,0,0,0,7.13,7.13,7,7,0,0,0,7.13-7.13V155.19l5.25-5.21,19.17,21.7a7,7,0,0,0,10.15.73,7.06,7.06,0,0,0,.54-10.17L655.3,139.91l19.36-19.22A7,7,0,0,0,674.79,110.52Z"/><path class="cls-2" d="M383.37,108.63a27.63,27.63,0,0,0-16.09,9,27.7,27.7,0,0,0-16.61-9.1,27.35,27.35,0,0,0-8.18,0,27.66,27.66,0,0,0-23.41,27.15v31.56a7,7,0,0,0,7,7c3.7,0,7.26-3.3,7.26-7h0V135.71a13.26,13.26,0,0,1,8.22-12.38,14.13,14.13,0,0,1,5.05-1,13.56,13.56,0,0,1,13.67,13.34v31.56a7.13,7.13,0,0,0,7.06,7c3.68.05,7.33-3.24,7.33-7h0V135.71a13.26,13.26,0,0,1,8.22-12.38,14.13,14.13,0,0,1,5.05-1,13.56,13.56,0,0,1,13.67,13.34v31.56a7.13,7.13,0,0,0,7,7,6.93,6.93,0,0,0,6.87-7V135.71a27.65,27.65,0,0,0-23.11-27.1A27.13,27.13,0,0,0,383.37,108.63Z"/><path class="cls-2" d="M812.07,65.31a9,9,0,1,1-8.94,9,8.95,8.95,0,0,1,8.94-9Zm-3.76,13.14H810V75h.34a2.9,2.9,0,0,1,.85.09,1.27,1.27,0,0,1,.51.35,11.9,11.9,0,0,1,.9,1.22l1.21,1.83h2l-1-1.63a9.87,9.87,0,0,0-.95-1.36,3.84,3.84,0,0,0-.9-.7A2.62,2.62,0,0,0,814.6,74a2.2,2.2,0,0,0,.56-1.55,2.45,2.45,0,0,0-.37-1.32,1.94,1.94,0,0,0-1-.8,6.11,6.11,0,0,0-2-.23h-3.56v8.37Zm1.7-4.83h1.25a6.33,6.33,0,0,0,1.51-.1,1,1,0,0,0,.48-.35,1.14,1.14,0,0,0,.17-.63,1,1,0,0,0-.23-.69,1,1,0,0,0-.63-.32c-.14,0-.55,0-1.24,0H810v2.12Zm2.06-6.83a7.48,7.48,0,1,0,7.47,7.48A7.48,7.48,0,0,0,812.07,66.79Z"/></g></g></svg>